<?xml version="1.0" standalone="no"?>
<!DOCTYPE svg PUBLIC "-//W3C//DTD SVG 20010904//EN"
 "http://www.w3.org/TR/2001/REC-SVG-20010904/DTD/svg10.dtd">
<svg version="1.0" xmlns="http://www.w3.org/2000/svg"
 width="200.000000pt" height="200.000000pt" viewBox="0 0 200.000000 200.000000"
 preserveAspectRatio="xMidYMid meet">
<metadata>
Created by potrace 1.11, written by Peter Selinger 2001-2013
</metadata>
<g transform="translate(0.000000,200.000000) scale(0.100000,-0.100000)"
fill="#000000" stroke="none">
<path d="M230 1173 c-13 -10 -42 -27 -65 -38 -73 -36 -85 -122 -24 -168 17
-12 37 -34 45 -49 12 -24 44 -40 44 -23 0 21 -43 83 -63 92 -31 14 -44 62 -25
92 7 11 25 25 41 30 15 6 40 19 54 31 38 29 94 27 134 -7 18 -15 42 -27 53
-25 45 5 55 -19 58 -137 1 -35 -15 -51 -61 -61 -32 -6 -29 -24 3 -28 53 -7
105 59 92 115 -4 16 -7 43 -6 61 1 40 -38 82 -76 82 -14 0 -39 11 -56 25 -36
31 -110 35 -148 8z"/>
<path d="M870 1062 c-15 -5 -13 -132 3 -133 35 -3 89 0 95 5 9 10 -2 15 -41
18 -28 1 -37 6 -35 18 2 10 12 14 29 12 17 -2 29 3 32 12 5 13 -1 16 -29 16
-42 0 -43 24 0 26 28 1 43 10 33 20 -6 7 -71 11 -87 6z"/>
<path d="M1344 1047 c-60 -52 -8 -141 68 -115 16 6 28 13 28 17 0 15 -13 20
-29 12 -26 -14 -61 5 -61 33 0 30 25 46 63 39 25 -5 39 9 20 20 -32 18 -64 15
-89 -6z"/>
<path d="M1005 1026 c-32 -13 -20 -32 14 -21 11 3 22 1 26 -5 4 -6 -4 -10 -18
-10 -29 0 -52 -24 -43 -45 4 -10 20 -15 51 -15 l46 0 -3 41 c-4 54 -29 73 -73
55z m40 -66 c-3 -5 -13 -10 -21 -10 -8 0 -14 5 -14 10 0 6 9 10 21 10 11 0 17
-4 14 -10z"/>
<path d="M1128 1028 c-38 -13 -37 -43 2 -57 17 -5 30 -13 30 -17 0 -3 -13 -4
-30 0 -22 4 -30 2 -30 -9 0 -16 44 -21 74 -9 27 10 19 41 -14 53 -36 12 -40
25 -6 19 15 -3 27 0 30 7 6 18 -23 24 -56 13z"/>
<path d="M1200 1022 c0 -10 8 -34 19 -55 18 -35 14 -53 -11 -56 -5 -1 -8 -4
-9 -8 0 -14 31 -15 46 -3 14 12 65 114 65 131 0 19 -33 -6 -46 -35 l-13 -31
-13 32 c-14 37 -38 52 -38 25z"/>
<path d="M1495 1030 c-72 -27 -44 -113 31 -98 26 5 45 47 33 70 -13 25 -41 37
-64 28z m33 -44 c2 -10 -1 -23 -8 -30 -17 -17 -44 22 -28 41 14 17 32 12 36
-11z"/>
<path d="M1595 1032 c-6 -4 -11 -28 -11 -54 0 -39 3 -48 17 -48 12 0 16 7 14
25 -1 14 3 33 10 42 11 15 13 15 25 -6 6 -13 10 -32 7 -42 -4 -14 0 -19 14
-19 15 0 19 7 19 34 0 20 6 36 14 39 20 8 26 -1 26 -39 0 -19 6 -34 15 -38 12
-4 15 3 15 37 0 62 -7 67 -83 64 -37 -1 -68 1 -69 5 -2 4 -8 4 -13 0z"/>
<path d="M1787 978 c1 -29 2 -61 2 -70 1 -25 31 -23 31 1 0 15 8 21 31 23 41
4 56 28 43 65 -8 25 -15 28 -59 31 l-50 3 2 -53z m74 -12 c-16 -19 -41 -10
-41 14 0 24 21 31 39 14 11 -10 12 -16 2 -28z"/>
<path d="M275 917 c-39 -39 -40 -69 -1 -43 22 14 23 13 21 -12 -2 -32 12 -65
25 -57 5 3 8 21 6 41 -3 40 6 51 24 29 7 -8 16 -15 21 -15 19 0 7 28 -26 60
l-34 33 -36 -36z"/>
</g>
</svg>
